<mxfile host="app.diagrams.net" modified="2023-04-22T09:10:41.527Z" agent="Mozilla/5.0 (Macintosh; Intel Mac OS X 10_15_7) AppleWebKit/537.36 (KHTML, like Gecko) Chrome/112.0.0.0 Safari/537.36" etag="Rj46-uNNkDSl8CWDIfCu" version="21.2.1" type="github">
  <diagram id="R2lEEEUBdFMjLlhIrx00" name="Page-1">
    <mxGraphModel dx="954" dy="616" grid="1" gridSize="10" guides="1" tooltips="1" connect="1" arrows="1" fold="1" page="1" pageScale="1" pageWidth="850" pageHeight="1100" math="0" shadow="0" extFonts="Permanent Marker^https://fonts.googleapis.com/css?family=Permanent+Marker">
      <root>
        <mxCell id="0" />
        <mxCell id="1" parent="0" />
        <mxCell id="C-vyLk0tnHw3VtMMgP7b-1" value="" style="edgeStyle=entityRelationEdgeStyle;endArrow=ERzeroToMany;startArrow=ERone;endFill=1;startFill=0;" parent="1" target="C-vyLk0tnHw3VtMMgP7b-6" edge="1">
          <mxGeometry width="100" height="100" relative="1" as="geometry">
            <mxPoint x="370" y="165" as="sourcePoint" />
            <mxPoint x="440" y="620" as="targetPoint" />
          </mxGeometry>
        </mxCell>
        <mxCell id="C-vyLk0tnHw3VtMMgP7b-12" value="" style="edgeStyle=entityRelationEdgeStyle;endArrow=ERzeroToMany;startArrow=ERone;endFill=1;startFill=0;" parent="1" target="C-vyLk0tnHw3VtMMgP7b-17" edge="1">
          <mxGeometry width="100" height="100" relative="1" as="geometry">
            <mxPoint x="700" y="165" as="sourcePoint" />
            <mxPoint x="460" y="205" as="targetPoint" />
          </mxGeometry>
        </mxCell>
        <mxCell id="LDV9NzvKZxMX1g5QQRBX-12" value="Customer" style="swimlane;childLayout=stackLayout;horizontal=1;startSize=50;horizontalStack=0;rounded=1;fontSize=14;fontStyle=0;strokeWidth=2;resizeParent=0;resizeLast=1;shadow=0;dashed=0;align=center;arcSize=4;whiteSpace=wrap;html=1;" vertex="1" parent="1">
          <mxGeometry x="80" y="40" width="160" height="120" as="geometry" />
        </mxCell>
        <mxCell id="LDV9NzvKZxMX1g5QQRBX-13" value="&lt;u&gt;Customer_ID&lt;br&gt;&lt;/u&gt;name&lt;br&gt;address&lt;br&gt;phone" style="align=left;strokeColor=none;fillColor=none;spacingLeft=4;fontSize=12;verticalAlign=top;resizable=0;rotatable=0;part=1;html=1;" vertex="1" parent="LDV9NzvKZxMX1g5QQRBX-12">
          <mxGeometry y="50" width="160" height="70" as="geometry" />
        </mxCell>
        <mxCell id="LDV9NzvKZxMX1g5QQRBX-14" value="Account" style="swimlane;childLayout=stackLayout;horizontal=1;startSize=50;horizontalStack=0;rounded=1;fontSize=14;fontStyle=0;strokeWidth=2;resizeParent=0;resizeLast=1;shadow=0;dashed=0;align=center;arcSize=4;whiteSpace=wrap;html=1;" vertex="1" parent="1">
          <mxGeometry x="520" y="40" width="160" height="120" as="geometry" />
        </mxCell>
        <mxCell id="LDV9NzvKZxMX1g5QQRBX-15" value="&lt;u&gt;account_number&lt;br&gt;&lt;/u&gt;&lt;br&gt;balance" style="align=left;strokeColor=none;fillColor=none;spacingLeft=4;fontSize=12;verticalAlign=top;resizable=0;rotatable=0;part=1;html=1;" vertex="1" parent="LDV9NzvKZxMX1g5QQRBX-14">
          <mxGeometry y="50" width="160" height="70" as="geometry" />
        </mxCell>
        <mxCell id="LDV9NzvKZxMX1g5QQRBX-16" value="own" style="shape=rhombus;perimeter=rhombusPerimeter;whiteSpace=wrap;html=1;align=center;" vertex="1" parent="1">
          <mxGeometry x="320" y="60" width="120" height="60" as="geometry" />
        </mxCell>
        <mxCell id="LDV9NzvKZxMX1g5QQRBX-17" value="" style="endArrow=none;html=1;rounded=0;shape=link;exitX=1;exitY=0.5;exitDx=0;exitDy=0;entryX=0;entryY=0;entryDx=0;entryDy=0;" edge="1" parent="1" source="LDV9NzvKZxMX1g5QQRBX-16" target="LDV9NzvKZxMX1g5QQRBX-15">
          <mxGeometry relative="1" as="geometry">
            <mxPoint x="440" y="100" as="sourcePoint" />
            <mxPoint x="520" y="100" as="targetPoint" />
          </mxGeometry>
        </mxCell>
        <mxCell id="LDV9NzvKZxMX1g5QQRBX-18" value="" style="endArrow=classic;html=1;rounded=0;endFill=1;entryX=1;entryY=0;entryDx=0;entryDy=0;exitX=0;exitY=0.5;exitDx=0;exitDy=0;" edge="1" parent="1" source="LDV9NzvKZxMX1g5QQRBX-16" target="LDV9NzvKZxMX1g5QQRBX-13">
          <mxGeometry relative="1" as="geometry">
            <mxPoint x="250" y="140" as="sourcePoint" />
            <mxPoint x="320" y="100" as="targetPoint" />
            <Array as="points" />
          </mxGeometry>
        </mxCell>
        <mxCell id="LDV9NzvKZxMX1g5QQRBX-19" value="Customer" style="swimlane;childLayout=stackLayout;horizontal=1;startSize=50;horizontalStack=0;rounded=1;fontSize=14;fontStyle=0;strokeWidth=2;resizeParent=0;resizeLast=1;shadow=0;dashed=0;align=center;arcSize=4;whiteSpace=wrap;html=1;" vertex="1" parent="1">
          <mxGeometry x="80" y="240" width="160" height="120" as="geometry" />
        </mxCell>
        <mxCell id="LDV9NzvKZxMX1g5QQRBX-20" value="&lt;u&gt;Customer_ID&lt;br&gt;&lt;/u&gt;name&lt;br&gt;address&lt;br&gt;{phone}" style="align=left;strokeColor=none;fillColor=none;spacingLeft=4;fontSize=12;verticalAlign=top;resizable=0;rotatable=0;part=1;html=1;" vertex="1" parent="LDV9NzvKZxMX1g5QQRBX-19">
          <mxGeometry y="50" width="160" height="70" as="geometry" />
        </mxCell>
        <mxCell id="LDV9NzvKZxMX1g5QQRBX-21" value="Account" style="swimlane;childLayout=stackLayout;horizontal=1;startSize=50;horizontalStack=0;rounded=1;fontSize=14;fontStyle=0;strokeWidth=2;resizeParent=0;resizeLast=1;shadow=0;dashed=0;align=center;arcSize=4;whiteSpace=wrap;html=1;" vertex="1" parent="1">
          <mxGeometry x="520" y="240" width="160" height="120" as="geometry" />
        </mxCell>
        <mxCell id="LDV9NzvKZxMX1g5QQRBX-22" value="&lt;u&gt;account_number&lt;br&gt;&lt;/u&gt;&lt;br&gt;balance" style="align=left;strokeColor=none;fillColor=none;spacingLeft=4;fontSize=12;verticalAlign=top;resizable=0;rotatable=0;part=1;html=1;" vertex="1" parent="LDV9NzvKZxMX1g5QQRBX-21">
          <mxGeometry y="50" width="160" height="70" as="geometry" />
        </mxCell>
        <mxCell id="LDV9NzvKZxMX1g5QQRBX-23" value="own" style="shape=rhombus;perimeter=rhombusPerimeter;whiteSpace=wrap;html=1;align=center;" vertex="1" parent="1">
          <mxGeometry x="320" y="260" width="120" height="60" as="geometry" />
        </mxCell>
        <mxCell id="LDV9NzvKZxMX1g5QQRBX-24" value="" style="endArrow=none;html=1;rounded=0;shape=link;exitX=1;exitY=0.5;exitDx=0;exitDy=0;entryX=0;entryY=0;entryDx=0;entryDy=0;" edge="1" parent="1" source="LDV9NzvKZxMX1g5QQRBX-23" target="LDV9NzvKZxMX1g5QQRBX-22">
          <mxGeometry relative="1" as="geometry">
            <mxPoint x="440" y="300" as="sourcePoint" />
            <mxPoint x="520" y="300" as="targetPoint" />
          </mxGeometry>
        </mxCell>
        <mxCell id="LDV9NzvKZxMX1g5QQRBX-25" value="" style="endArrow=classic;html=1;rounded=0;endFill=1;entryX=1;entryY=0;entryDx=0;entryDy=0;exitX=0;exitY=0.5;exitDx=0;exitDy=0;" edge="1" parent="1" source="LDV9NzvKZxMX1g5QQRBX-23" target="LDV9NzvKZxMX1g5QQRBX-20">
          <mxGeometry relative="1" as="geometry">
            <mxPoint x="250" y="340" as="sourcePoint" />
            <mxPoint x="320" y="300" as="targetPoint" />
            <Array as="points" />
          </mxGeometry>
        </mxCell>
        <mxCell id="LDV9NzvKZxMX1g5QQRBX-26" value="Customer" style="swimlane;childLayout=stackLayout;horizontal=1;startSize=50;horizontalStack=0;rounded=1;fontSize=14;fontStyle=0;strokeWidth=2;resizeParent=0;resizeLast=1;shadow=0;dashed=0;align=center;arcSize=4;whiteSpace=wrap;html=1;" vertex="1" parent="1">
          <mxGeometry x="80" y="440" width="160" height="170" as="geometry" />
        </mxCell>
        <mxCell id="LDV9NzvKZxMX1g5QQRBX-27" value="&lt;u&gt;Customer_ID&lt;br&gt;&lt;/u&gt;name&lt;br&gt;address&lt;br&gt;&lt;span style=&quot;white-space: pre;&quot;&gt;	&lt;/span&gt;province&lt;br&gt;&lt;span style=&quot;white-space: pre;&quot;&gt;	&lt;/span&gt;city&lt;br&gt;&lt;span style=&quot;white-space: pre;&quot;&gt;	&lt;/span&gt;street&lt;br&gt;{phone}" style="align=left;strokeColor=none;fillColor=none;spacingLeft=4;fontSize=12;verticalAlign=top;resizable=0;rotatable=0;part=1;html=1;" vertex="1" parent="LDV9NzvKZxMX1g5QQRBX-26">
          <mxGeometry y="50" width="160" height="120" as="geometry" />
        </mxCell>
        <mxCell id="LDV9NzvKZxMX1g5QQRBX-28" value="Account" style="swimlane;childLayout=stackLayout;horizontal=1;startSize=50;horizontalStack=0;rounded=1;fontSize=14;fontStyle=0;strokeWidth=2;resizeParent=0;resizeLast=1;shadow=0;dashed=0;align=center;arcSize=4;whiteSpace=wrap;html=1;" vertex="1" parent="1">
          <mxGeometry x="520" y="440" width="160" height="120" as="geometry" />
        </mxCell>
        <mxCell id="LDV9NzvKZxMX1g5QQRBX-29" value="&lt;u&gt;account_number&lt;br&gt;&lt;/u&gt;&lt;br&gt;balance" style="align=left;strokeColor=none;fillColor=none;spacingLeft=4;fontSize=12;verticalAlign=top;resizable=0;rotatable=0;part=1;html=1;" vertex="1" parent="LDV9NzvKZxMX1g5QQRBX-28">
          <mxGeometry y="50" width="160" height="70" as="geometry" />
        </mxCell>
        <mxCell id="LDV9NzvKZxMX1g5QQRBX-30" value="own" style="shape=rhombus;perimeter=rhombusPerimeter;whiteSpace=wrap;html=1;align=center;" vertex="1" parent="1">
          <mxGeometry x="320" y="460" width="120" height="60" as="geometry" />
        </mxCell>
        <mxCell id="LDV9NzvKZxMX1g5QQRBX-31" value="" style="endArrow=none;html=1;rounded=0;shape=link;exitX=1;exitY=0.5;exitDx=0;exitDy=0;entryX=0;entryY=0;entryDx=0;entryDy=0;" edge="1" parent="1" source="LDV9NzvKZxMX1g5QQRBX-30" target="LDV9NzvKZxMX1g5QQRBX-29">
          <mxGeometry relative="1" as="geometry">
            <mxPoint x="440" y="500" as="sourcePoint" />
            <mxPoint x="520" y="500" as="targetPoint" />
          </mxGeometry>
        </mxCell>
        <mxCell id="LDV9NzvKZxMX1g5QQRBX-32" value="" style="endArrow=classic;html=1;rounded=0;endFill=1;entryX=1;entryY=0;entryDx=0;entryDy=0;exitX=0;exitY=0.5;exitDx=0;exitDy=0;" edge="1" parent="1" source="LDV9NzvKZxMX1g5QQRBX-30" target="LDV9NzvKZxMX1g5QQRBX-27">
          <mxGeometry relative="1" as="geometry">
            <mxPoint x="250" y="540" as="sourcePoint" />
            <mxPoint x="320" y="500" as="targetPoint" />
            <Array as="points" />
          </mxGeometry>
        </mxCell>
        <mxCell id="LDV9NzvKZxMX1g5QQRBX-35" value="Customer" style="swimlane;childLayout=stackLayout;horizontal=1;startSize=50;horizontalStack=0;rounded=1;fontSize=14;fontStyle=0;strokeWidth=2;resizeParent=0;resizeLast=1;shadow=0;dashed=0;align=center;arcSize=4;whiteSpace=wrap;html=1;" vertex="1" parent="1">
          <mxGeometry x="80" y="680" width="160" height="170" as="geometry" />
        </mxCell>
        <mxCell id="LDV9NzvKZxMX1g5QQRBX-36" value="&lt;u&gt;Customer_ID&lt;br&gt;&lt;/u&gt;name&lt;br&gt;address&lt;br&gt;&lt;span style=&quot;white-space: pre;&quot;&gt;	&lt;/span&gt;province&lt;br&gt;&lt;span style=&quot;white-space: pre;&quot;&gt;	&lt;/span&gt;city&lt;br&gt;&lt;span style=&quot;white-space: pre;&quot;&gt;	&lt;/span&gt;street&lt;br&gt;{phone}" style="align=left;strokeColor=none;fillColor=none;spacingLeft=4;fontSize=12;verticalAlign=top;resizable=0;rotatable=0;part=1;html=1;" vertex="1" parent="LDV9NzvKZxMX1g5QQRBX-35">
          <mxGeometry y="50" width="160" height="120" as="geometry" />
        </mxCell>
        <mxCell id="LDV9NzvKZxMX1g5QQRBX-37" value="Account" style="swimlane;childLayout=stackLayout;horizontal=1;startSize=50;horizontalStack=0;rounded=1;fontSize=14;fontStyle=0;strokeWidth=2;resizeParent=0;resizeLast=1;shadow=0;dashed=0;align=center;arcSize=4;whiteSpace=wrap;html=1;" vertex="1" parent="1">
          <mxGeometry x="450" y="680" width="160" height="120" as="geometry" />
        </mxCell>
        <mxCell id="LDV9NzvKZxMX1g5QQRBX-38" value="&lt;u&gt;account_number&lt;br&gt;&lt;/u&gt;&lt;br&gt;balance" style="align=left;strokeColor=none;fillColor=none;spacingLeft=4;fontSize=12;verticalAlign=top;resizable=0;rotatable=0;part=1;html=1;" vertex="1" parent="LDV9NzvKZxMX1g5QQRBX-37">
          <mxGeometry y="50" width="160" height="70" as="geometry" />
        </mxCell>
        <mxCell id="LDV9NzvKZxMX1g5QQRBX-39" value="own" style="shape=rhombus;perimeter=rhombusPerimeter;whiteSpace=wrap;html=1;align=center;" vertex="1" parent="1">
          <mxGeometry x="280" y="700" width="120" height="60" as="geometry" />
        </mxCell>
        <mxCell id="LDV9NzvKZxMX1g5QQRBX-40" value="" style="endArrow=none;html=1;rounded=0;shape=link;exitX=1;exitY=0.5;exitDx=0;exitDy=0;entryX=0;entryY=0;entryDx=0;entryDy=0;" edge="1" parent="1" source="LDV9NzvKZxMX1g5QQRBX-39" target="LDV9NzvKZxMX1g5QQRBX-38">
          <mxGeometry relative="1" as="geometry">
            <mxPoint x="440" y="740" as="sourcePoint" />
            <mxPoint x="520" y="740" as="targetPoint" />
          </mxGeometry>
        </mxCell>
        <mxCell id="LDV9NzvKZxMX1g5QQRBX-41" value="" style="endArrow=classic;html=1;rounded=0;endFill=1;entryX=1;entryY=0;entryDx=0;entryDy=0;exitX=0;exitY=0.5;exitDx=0;exitDy=0;" edge="1" parent="1" source="LDV9NzvKZxMX1g5QQRBX-39" target="LDV9NzvKZxMX1g5QQRBX-36">
          <mxGeometry relative="1" as="geometry">
            <mxPoint x="250" y="780" as="sourcePoint" />
            <mxPoint x="320" y="740" as="targetPoint" />
            <Array as="points" />
          </mxGeometry>
        </mxCell>
        <mxCell id="LDV9NzvKZxMX1g5QQRBX-49" value="" style="group" vertex="1" connectable="0" parent="1">
          <mxGeometry x="810" y="675" width="170" height="130" as="geometry" />
        </mxCell>
        <mxCell id="LDV9NzvKZxMX1g5QQRBX-44" value="" style="rounded=1;arcSize=7;whiteSpace=wrap;html=1;align=center;strokeWidth=2;container=0;" vertex="1" parent="LDV9NzvKZxMX1g5QQRBX-49">
          <mxGeometry width="170" height="130" as="geometry" />
        </mxCell>
        <mxCell id="LDV9NzvKZxMX1g5QQRBX-42" value="transactions" style="swimlane;childLayout=stackLayout;horizontal=1;startSize=50;horizontalStack=0;rounded=1;fontSize=14;fontStyle=0;strokeWidth=2;resizeParent=0;resizeLast=1;shadow=0;align=center;arcSize=4;whiteSpace=wrap;html=1;container=0;" vertex="1" parent="LDV9NzvKZxMX1g5QQRBX-49">
          <mxGeometry x="5" y="5" width="160" height="120" as="geometry" />
        </mxCell>
        <mxCell id="LDV9NzvKZxMX1g5QQRBX-43" value="transaction_datetime&lt;br&gt;&lt;br&gt;amount" style="align=left;strokeColor=none;fillColor=none;spacingLeft=4;fontSize=12;verticalAlign=top;resizable=0;rotatable=0;part=1;html=1;rounded=0;shadow=0;container=0;" vertex="1" parent="LDV9NzvKZxMX1g5QQRBX-49">
          <mxGeometry x="5" y="55" width="160" height="70" as="geometry" />
        </mxCell>
        <mxCell id="LDV9NzvKZxMX1g5QQRBX-47" value="" style="endArrow=none;html=1;rounded=0;dashed=1;" edge="1" parent="LDV9NzvKZxMX1g5QQRBX-49">
          <mxGeometry relative="1" as="geometry">
            <mxPoint x="12" y="77" as="sourcePoint" />
            <mxPoint x="122" y="77" as="targetPoint" />
            <Array as="points">
              <mxPoint x="82" y="77" />
            </Array>
          </mxGeometry>
        </mxCell>
        <mxCell id="LDV9NzvKZxMX1g5QQRBX-48" value="" style="endArrow=none;html=1;rounded=0;dashed=1;" edge="1" parent="LDV9NzvKZxMX1g5QQRBX-49">
          <mxGeometry relative="1" as="geometry">
            <mxPoint x="11" y="106" as="sourcePoint" />
            <mxPoint x="51" y="106" as="targetPoint" />
          </mxGeometry>
        </mxCell>
        <mxCell id="LDV9NzvKZxMX1g5QQRBX-50" value="record" style="shape=rhombus;double=1;perimeter=rhombusPerimeter;whiteSpace=wrap;html=1;align=center;" vertex="1" parent="1">
          <mxGeometry x="650" y="700" width="120" height="60" as="geometry" />
        </mxCell>
        <mxCell id="LDV9NzvKZxMX1g5QQRBX-51" value="" style="endArrow=none;html=1;rounded=0;exitX=1;exitY=0.5;exitDx=0;exitDy=0;entryX=0.009;entryY=0.427;entryDx=0;entryDy=0;entryPerimeter=0;shape=link;" edge="1" parent="1" source="LDV9NzvKZxMX1g5QQRBX-50" target="LDV9NzvKZxMX1g5QQRBX-44">
          <mxGeometry relative="1" as="geometry">
            <mxPoint x="820" y="729.5" as="sourcePoint" />
            <mxPoint x="980" y="729.5" as="targetPoint" />
          </mxGeometry>
        </mxCell>
        <mxCell id="LDV9NzvKZxMX1g5QQRBX-52" value="" style="endArrow=classic;html=1;rounded=0;exitX=0;exitY=0.5;exitDx=0;exitDy=0;endFill=1;entryX=1;entryY=0;entryDx=0;entryDy=0;" edge="1" parent="1" source="LDV9NzvKZxMX1g5QQRBX-50" target="LDV9NzvKZxMX1g5QQRBX-38">
          <mxGeometry relative="1" as="geometry">
            <mxPoint x="650" y="729.5" as="sourcePoint" />
            <mxPoint x="730" y="770" as="targetPoint" />
          </mxGeometry>
        </mxCell>
        <mxCell id="LDV9NzvKZxMX1g5QQRBX-53" value="opening_date" style="whiteSpace=wrap;html=1;align=center;" vertex="1" parent="1">
          <mxGeometry x="335" y="10" width="90" height="30" as="geometry" />
        </mxCell>
        <mxCell id="LDV9NzvKZxMX1g5QQRBX-54" value="" style="endArrow=none;html=1;rounded=0;entryX=0.5;entryY=1;entryDx=0;entryDy=0;exitX=0.5;exitY=0;exitDx=0;exitDy=0;dashed=1;" edge="1" parent="1" source="LDV9NzvKZxMX1g5QQRBX-16" target="LDV9NzvKZxMX1g5QQRBX-53">
          <mxGeometry relative="1" as="geometry">
            <mxPoint x="310" y="180" as="sourcePoint" />
            <mxPoint x="310" y="120" as="targetPoint" />
          </mxGeometry>
        </mxCell>
        <mxCell id="LDV9NzvKZxMX1g5QQRBX-55" value="opening_date" style="whiteSpace=wrap;html=1;align=center;" vertex="1" parent="1">
          <mxGeometry x="335" y="210" width="90" height="30" as="geometry" />
        </mxCell>
        <mxCell id="LDV9NzvKZxMX1g5QQRBX-56" value="opening_date" style="whiteSpace=wrap;html=1;align=center;" vertex="1" parent="1">
          <mxGeometry x="335" y="410" width="90" height="30" as="geometry" />
        </mxCell>
        <mxCell id="LDV9NzvKZxMX1g5QQRBX-57" value="opening_date" style="whiteSpace=wrap;html=1;align=center;" vertex="1" parent="1">
          <mxGeometry x="295" y="650" width="90" height="30" as="geometry" />
        </mxCell>
        <mxCell id="LDV9NzvKZxMX1g5QQRBX-58" value="" style="endArrow=none;html=1;rounded=0;entryX=0.5;entryY=1;entryDx=0;entryDy=0;exitX=0.5;exitY=0;exitDx=0;exitDy=0;dashed=1;" edge="1" parent="1">
          <mxGeometry relative="1" as="geometry">
            <mxPoint x="379.5" y="260" as="sourcePoint" />
            <mxPoint x="379.5" y="240" as="targetPoint" />
          </mxGeometry>
        </mxCell>
        <mxCell id="LDV9NzvKZxMX1g5QQRBX-60" value="" style="endArrow=none;html=1;rounded=0;entryX=0.5;entryY=1;entryDx=0;entryDy=0;exitX=0.5;exitY=0;exitDx=0;exitDy=0;dashed=1;" edge="1" parent="1">
          <mxGeometry relative="1" as="geometry">
            <mxPoint x="380" y="461" as="sourcePoint" />
            <mxPoint x="380" y="441" as="targetPoint" />
          </mxGeometry>
        </mxCell>
        <mxCell id="LDV9NzvKZxMX1g5QQRBX-61" value="" style="endArrow=none;html=1;rounded=0;entryX=0.5;entryY=1;entryDx=0;entryDy=0;exitX=0.5;exitY=0;exitDx=0;exitDy=0;dashed=1;" edge="1" parent="1">
          <mxGeometry relative="1" as="geometry">
            <mxPoint x="340" y="700" as="sourcePoint" />
            <mxPoint x="340" y="680" as="targetPoint" />
          </mxGeometry>
        </mxCell>
      </root>
    </mxGraphModel>
  </diagram>
</mxfile>
